<?xml version="1.0" encoding="utf-8"?>
<!-- Generator: Adobe Illustrator 26.3.1, SVG Export Plug-In . SVG Version: 6.00 Build 0)  -->
<svg version="1.1" id="Layer_1" xmlns:svg="http://www.w3.org/2000/svg" xmlns:rdf="http://www.w3.org/1999/02/22-rdf-syntax-ns#"
	 xmlns="http://www.w3.org/2000/svg" xmlns:xlink="http://www.w3.org/1999/xlink" x="0px" y="0px" viewBox="0 0 300 120.3"
	 style="enable-background:new 0 0 300 120.3;" xml:space="preserve">
<style type="text/css">
	.st0{fill:#1D293A;stroke:#1D293A;stroke-width:1.9462;stroke-miterlimit:10;}
	.st1{fill:#0064D2;stroke:#0064D2;stroke-width:1.9462;stroke-miterlimit:10;}
	.st2{fill:none;stroke:#F5AF02;stroke-width:16.7337;stroke-miterlimit:10;}
</style>
<g>
	<path class="st0" d="M2.2,32.8c2.7-0.7,6.5-1.6,10.4-2.3c3.9-0.7,8.3-1,12.4-1c8,0,12.7,2.5,15.9,5.5c4.6-3.5,10.9-5.5,15.9-5.5
		c8.8,0,14.3,2.6,17.7,7.4S79,48.2,79,56.1v32.6H63.2V58c0-10.6-2.3-14.6-8.7-14.6c-1.6,0-5.2,1-7.2,2.3c1,3.4,1.2,7.1,1.2,11.3
		v31.6H32.7V58c0-10.6-2.3-14.6-8.7-14.6c-1.9,0-4.1,0.3-6.1,0.6v44.6H2.2V32.8z"/>
	<path class="st1" d="M91.1,32.3c1.7-0.6,4.5-1.3,7.6-1.8s6.5-0.9,10.1-0.9c9,0,14.9,2.2,18.4,6.1s4.9,9.8,4.9,16.8v33.1
		c-4.3,1.1-12.1,2.8-23,2.8c-7,0-12.6-1.1-16.7-4.1c-4.1-2.9-6.3-7.6-6.3-14.4c0-6.5,2.7-11.1,6.9-13.8c4.1-2.7,9.8-3.9,15.6-3.9
		c3.9,0,7.1,0.5,8.9,1v-1.5c0-5.5-2.8-9-10.4-9c-5.2,0-10.5,0.9-14.1,2.2L91.1,32.3z M117.6,63.6c-1.2-0.3-4.1-0.6-6.1-0.6
		c-2.8,0-5.4,0.3-7.2,1.3c-1.9,1-3.1,2.6-3.1,5.2c0,5.1,3.4,6.6,8.9,6.6c3,0,6-0.1,7.5-0.4C117.6,75.7,117.6,63.6,117.6,63.6z"/>
	<path class="st1" d="M185.6,40.8c-2.6,3-7.2,8.3-12.3,14.4s-10.4,13.2-14.6,19.4h27.4v14h-46.9v-9.8c3-5.5,7.5-11.9,12.2-18.1
		s9.4-12.5,13.3-17.1h-24.1v-14h45L185.6,40.8L185.6,40.8z"/>
	<path class="st0" d="M198.4,32.3c1.7-0.6,4.5-1.3,7.6-1.8s6.5-0.9,10.1-0.9c9,0,14.9,2.2,18.4,6.1s4.9,9.8,4.9,16.8v33.1
		c-4.3,1.1-12.1,2.8-23,2.8c-7,0-12.6-1.1-16.7-4.1c-4.1-2.9-6.3-7.6-6.3-14.4c0-6.5,2.7-11.1,6.9-13.8c4.1-2.7,9.8-3.9,15.6-3.9
		c3.9,0,7.1,0.5,8.9,1v-1.5c0-5.5-2.8-9-10.4-9c-5.2,0-10.5,0.9-14.1,2.2L198.4,32.3z M224.9,63.6c-1.2-0.3-4.1-0.6-6.1-0.6
		c-2.8,0-5.4,0.3-7.2,1.3c-1.9,1-3.1,2.6-3.1,5.2c0,5.1,3.4,6.6,8.9,6.6c3,0,6-0.1,7.5-0.4L224.9,63.6L224.9,63.6z"/>
	<path class="st0" d="M297.2,85.3c-2.8,0.9-6.5,1.8-10.4,2.3c-3.9,0.6-8.1,1-11.9,1c-8.9,0-16.1-3-20.8-8.3s-7.4-12.5-7.4-21.3
		c0-18.1,8.3-29.3,23.8-29.3c4.3,0,7.9,0.8,11.3,2.5v-27l15.5,2.6v77.5H297.2z M281.8,45.4c-2-1.3-5.2-2.2-8.4-2.2
		c-7.3,0-10.9,5.1-10.9,15.3c0,10,4.1,16.5,12.6,16.5c2.8,0,5.2-0.2,6.7-0.7L281.8,45.4L281.8,45.4z"/>
</g>
<line class="st2" x1="84.7" y1="108.4" x2="186.5" y2="108.4"/>
</svg>
