<?xml version="1.0" encoding="utf-8"?>
<!-- Generator: Adobe Illustrator 26.3.1, SVG Export Plug-In . SVG Version: 6.00 Build 0)  -->
<svg version="1.1" id="Layer_1" xmlns="http://www.w3.org/2000/svg" xmlns:xlink="http://www.w3.org/1999/xlink" x="0px" y="0px"
	 viewBox="0 0 1024 1024" style="enable-background:new 0 0 1024 1024;" xml:space="preserve">
<style type="text/css">
	.st0{fill:#A5C6E5;}
</style>
<path class="st0" d="M512,1024c-140.6,0.1-275-57.8-371.6-160C-53.9,658.7-45,334.7,160.3,140.4S689.6-45,883.9,160.3
	s185.4,529.3-19.9,723.6C768.9,973.9,642.9,1024,512,1024z M512,42.7C253.1,42.4,43,252.2,42.7,511.1
	c-0.1,120.2,45.9,235.8,128.6,323c62.5-56,137.9-95.8,219.5-115.7C253,651.5,195.5,485.6,262.4,347.8S495.2,152.5,633,219.4
	S828.3,452.2,761.4,590C734.2,646,689,691.2,633,718.4c81.6,19.9,157,59.7,219.5,115.7c178.2-187.9,170.3-484.7-17.6-662.8
	C747.8,88.6,632.2,42.6,512,42.7z"/>
</svg>
